<svg viewBox="0 0 43 47" xmlns="http://www.w3.org/2000/svg">
<path fill-rule="evenodd" clip-rule="evenodd" d="M10.7695 38.5H0.769531L0.769531 36.5H10.7695V38.5Z" />
<path fill-rule="evenodd" clip-rule="evenodd" d="M24.7695 38.5H18.7695V36.5H24.7695V38.5Z" />
<path fill-rule="evenodd" clip-rule="evenodd" d="M40.7695 38.5H31.7695V36.5H40.7695V38.5Z" />
<path fill-rule="evenodd" clip-rule="evenodd" d="M2.97474 17.3941C3.51808 13.9982 6.44775 11.5 9.88682 11.5H32.6542C36.0933 11.5 39.0229 13.9982 39.5663 17.3941L42.4531 35.4367C42.6844 36.8821 42.4567 38.3638 41.802 39.6731L39.2177 44.8416C38.7095 45.858 37.6708 46.5 36.5344 46.5H6.00658C4.87026 46.5 3.83147 45.858 3.32329 44.8416L0.739016 39.6731C0.0843539 38.3638 -0.143355 36.8821 0.0879225 35.4367L2.97474 17.3941ZM9.88682 13.5C7.43034 13.5 5.33772 15.2844 4.94962 17.71L2.0628 35.7526C1.89761 36.7851 2.06025 37.8434 2.52787 38.7787L5.11215 43.9472C5.28154 44.286 5.6278 44.5 6.00658 44.5H36.5344C36.9132 44.5 37.2595 44.286 37.4289 43.9472L40.0131 38.7787C40.4808 37.8434 40.6434 36.7851 40.4782 35.7526L37.5914 17.71C37.2033 15.2844 35.1107 13.5 32.6542 13.5H9.88682Z" />
<path fill-rule="evenodd" clip-rule="evenodd" d="M14.3975 34.4199C13.7005 34.4199 13.0321 34.6968 12.5392 35.1896C12.0464 35.6825 11.7695 36.3509 11.7695 37.0479V44.5H17.0254V37.0479C17.0254 36.3509 16.7486 35.6825 16.2557 35.1896C15.7629 34.6968 15.0945 34.4199 14.3975 34.4199ZM11.125 33.7754C11.9929 32.9075 13.1701 32.4199 14.3975 32.4199C15.6249 32.4199 16.802 32.9075 17.6699 33.7754C18.5379 34.6433 19.0254 35.8205 19.0254 37.0479V45.5C19.0254 46.0523 18.5777 46.5 18.0254 46.5H10.7695C10.2172 46.5 9.76953 46.0523 9.76953 45.5V37.0479C9.76953 35.8205 10.2571 34.6433 11.125 33.7754Z" />
<path fill-rule="evenodd" clip-rule="evenodd" d="M14.417 26.5C12.9656 26.5 11.7891 27.6766 11.7891 29.128C11.7891 30.5793 12.9656 31.7559 14.417 31.7559C15.8684 31.7559 17.0449 30.5793 17.0449 29.128C17.0449 27.6766 15.8684 26.5 14.417 26.5ZM9.78906 29.128C9.78906 26.572 11.8611 24.5 14.417 24.5C16.973 24.5 19.0449 26.572 19.0449 29.128C19.0449 31.6839 16.973 33.7559 14.417 33.7559C11.8611 33.7559 9.78906 31.6839 9.78906 29.128Z" />
<path fill-rule="evenodd" clip-rule="evenodd" d="M28.1201 34.4199C27.4232 34.4199 26.7547 34.6968 26.2619 35.1896C25.7691 35.6825 25.4922 36.3509 25.4922 37.0479V44.5H30.7481V37.0479C30.7481 36.3509 30.4712 35.6825 29.9784 35.1896C29.4856 34.6968 28.8171 34.4199 28.1201 34.4199ZM24.8477 33.7754C25.7156 32.9075 26.8927 32.4199 28.1201 32.4199C29.3476 32.4199 30.5247 32.9075 31.3926 33.7754C32.2605 34.6433 32.7481 35.8205 32.7481 37.0479V45.5C32.7481 46.0523 32.3004 46.5 31.7481 46.5H24.4922C23.9399 46.5 23.4922 46.0523 23.4922 45.5V37.0479C23.4922 35.8205 23.9798 34.6433 24.8477 33.7754Z" />
<path fill-rule="evenodd" clip-rule="evenodd" d="M28.1397 26.5C26.6883 26.5 25.5117 27.6766 25.5117 29.128C25.5117 30.5793 26.6883 31.7559 28.1397 31.7559C29.591 31.7559 30.7676 30.5793 30.7676 29.128C30.7676 27.6766 29.591 26.5 28.1397 26.5ZM23.5117 29.128C23.5117 26.572 25.5837 24.5 28.1397 24.5C30.6956 24.5 32.7676 26.572 32.7676 29.128C32.7676 31.6839 30.6956 33.7559 28.1397 33.7559C25.5838 33.7559 23.5117 31.6839 23.5117 29.128Z" />
<path fill-rule="evenodd" clip-rule="evenodd" d="M22.0914 4.8605C22.4447 4.64419 22.9064 4.7552 23.1227 5.10844L27.4091 12.1084C27.5509 12.3399 27.5565 12.6299 27.4238 12.8667C27.2912 13.1035 27.0409 13.2501 26.7695 13.2501H15.7695C15.4984 13.2501 15.2483 13.1037 15.1156 12.8673C14.9828 12.6308 14.988 12.3411 15.1292 12.1096L19.3024 5.26694C19.518 4.9133 19.9795 4.80146 20.3332 5.01713C20.6868 5.2328 20.7987 5.69432 20.583 6.04796L17.1054 11.7501H25.4308L21.8435 5.89177C21.6272 5.53853 21.7382 5.07681 22.0914 4.8605Z" />
<path fill-rule="evenodd" clip-rule="evenodd" d="M24.4922 3.28124C24.4922 5.09341 23.0231 6.56248 21.2109 6.56248C19.3987 6.56248 17.9297 5.09341 17.9297 3.28124C17.9297 1.46907 19.3987 0 21.2109 0C23.0231 0 24.4922 1.46907 24.4922 3.28124ZM22.9922 3.28124C22.9922 4.26499 22.1947 5.06248 21.2109 5.06248C20.2272 5.06248 19.4297 4.26499 19.4297 3.28124C19.4297 2.29749 20.2272 1.5 21.2109 1.5C22.1947 1.5 22.9922 2.29749 22.9922 3.28124Z" />
</svg>
