<svg viewBox="0 0 46 51" xmlns="http://www.w3.org/2000/svg">
<path fill-rule="evenodd" clip-rule="evenodd" d="M33.7812 18H11.7812V16H33.7812V18Z" />
<path fill-rule="evenodd" clip-rule="evenodd" d="M4.68454 18.8601C5.18897 17.1634 6.74858 16 8.51869 16H13.003V18H8.51869C7.63364 18 6.85383 18.5817 6.60162 19.4301L2.12439 34.4898C1.93707 35.1199 1.96188 35.7941 2.19501 36.4087L6.72623 48.3547C6.87358 48.7431 7.24577 49 7.66123 49H13.6141V51H7.66123C6.41484 51 5.29828 50.2293 4.85624 49.064L0.325013 37.118C-0.063536 36.0936 -0.104887 34.97 0.207319 33.9199L4.68454 18.8601Z" />
<path fill-rule="evenodd" clip-rule="evenodd" d="M40.7139 18.8601C40.2095 17.1634 38.6499 16 36.8797 16H32.3954V18H36.8797C37.7648 18 38.5446 18.5817 38.7968 19.4301L43.274 34.4898C43.4614 35.1199 43.4366 35.7941 43.2034 36.4087L38.6722 48.3547C38.5249 48.7431 38.1527 49 37.7372 49H31.7843V51H37.7372C38.9836 51 40.1002 50.2293 40.5422 49.064L45.0734 37.118C45.462 36.0936 45.5033 34.97 45.1911 33.9199L40.7139 18.8601Z" />
<path fill-rule="evenodd" clip-rule="evenodd" d="M8.44966 23.3254C8.76379 21.9642 9.97587 21 11.3728 21H34.1908C35.5878 21 36.7998 21.9642 37.114 23.3254L37.116 23.3344L39.5199 34.2063C39.7136 35.0822 39.668 35.994 39.3882 36.846L38.248 40.7069C37.9223 42.051 36.7184 43 35.3325 43H10.23C8.84409 43 7.64013 42.0509 7.31447 40.7067L6.17537 36.8458C5.89558 35.9938 5.85005 35.0822 6.0437 34.2063L8.44966 23.3254ZM10.3993 23.7714L7.99653 34.6381C7.87957 35.1671 7.90803 35.7179 8.07891 36.232L8.08427 36.2482L9.24888 40.1956L9.25564 40.2249C9.36035 40.6786 9.76438 41 10.23 41H35.3325C35.7981 41 36.2022 40.6786 36.3069 40.2249L36.3136 40.1954L37.4794 36.2481L37.4847 36.232C37.6556 35.7179 37.6841 35.1671 37.5671 34.6381L35.1643 23.7715C35.0583 23.3197 34.6552 23 34.1908 23H11.3728C10.9085 23 10.5054 23.3197 10.3993 23.7714Z" />
<path fill-rule="evenodd" clip-rule="evenodd" d="M33.7812 51H11.7812V49H33.7812V51Z" />
<path fill-rule="evenodd" clip-rule="evenodd" d="M16.9708 2.75H19.2814C19.6956 2.75 20.0314 3.08579 20.0314 3.5C20.0314 3.91421 19.6956 4.25 19.2814 4.25H17.5921L13.7866 8.05546C12.0542 9.78786 13.2812 12.75 15.7312 12.75H31.2814C31.6956 12.75 32.0314 13.0858 32.0314 13.5C32.0314 13.9142 31.6956 14.25 31.2814 14.25H26.5314V17C26.5314 17.4142 26.1956 17.75 25.7814 17.75C25.3672 17.75 25.0314 17.4142 25.0314 17V14.25H20.0314V17C20.0314 17.4142 19.6956 17.75 19.2814 17.75C18.8672 17.75 18.5314 17.4142 18.5314 17V14.25H15.7312C11.9448 14.25 10.0486 9.67215 12.726 6.9948L16.9708 2.75Z" />
<path fill-rule="evenodd" clip-rule="evenodd" d="M25.3437 3.28124C25.3437 5.09341 23.8747 6.56248 22.0625 6.56248C20.2503 6.56248 18.7812 5.09341 18.7812 3.28124C18.7812 1.46907 20.2503 0 22.0625 0C23.8747 0 25.3437 1.46907 25.3437 3.28124ZM23.8437 3.28124C23.8437 4.26499 23.0462 5.06248 22.0625 5.06248C21.0787 5.06248 20.2812 4.26499 20.2812 3.28124C20.2812 2.29749 21.0787 1.5 22.0625 1.5C23.0462 1.5 23.8437 2.29749 23.8437 3.28124Z" />
</svg>
