<svg viewBox="0 0 90 61"  xmlns="http://www.w3.org/2000/svg">
<path fill-rule="evenodd" clip-rule="evenodd" d="M45.6578 4.8605C46.0111 4.64419 46.4728 4.7552 46.6891 5.10844L50.9755 12.1084C51.1173 12.3399 51.1229 12.6299 50.9902 12.8667C50.8576 13.1035 50.6074 13.2501 50.3359 13.2501H39.3359C39.0648 13.2501 38.8147 13.1037 38.682 12.8673C38.5492 12.6308 38.5544 12.3411 38.6956 12.1096L42.871 5.26323C43.0867 4.9096 43.5482 4.79776 43.9018 5.01343C44.2555 5.2291 44.3673 5.69062 44.1517 6.04425L40.6718 11.7501H48.9972L45.4099 5.89177C45.1936 5.53853 45.3046 5.07681 45.6578 4.8605Z" />
<path fill-rule="evenodd" clip-rule="evenodd" d="M48.0586 3.28124C48.0586 5.09341 46.5895 6.56248 44.7773 6.56248C42.9651 6.56248 41.4961 5.09341 41.4961 3.28124C41.4961 1.46907 42.9651 0 44.7773 0C46.5895 0 48.0586 1.46907 48.0586 3.28124ZM46.5586 3.28124C46.5586 4.26499 45.7611 5.06248 44.7773 5.06248C43.7936 5.06248 42.9961 4.26499 42.9961 3.28124C42.9961 2.29749 43.7936 1.5 44.7773 1.5C45.7611 1.5 46.5586 2.29749 46.5586 3.28124Z" />
<path fill-rule="evenodd" clip-rule="evenodd" d="M76.2227 13.5H13.2227V11.5H76.2227V13.5Z" />
<path fill-rule="evenodd" clip-rule="evenodd" d="M7 34.5H1V32.5H7V34.5Z" />
<path fill-rule="evenodd" clip-rule="evenodd" d="M21 34.5H15V32.5H21V34.5Z" />
<path fill-rule="evenodd" clip-rule="evenodd" d="M35 34.5H29V32.5H35V34.5Z" />
<path fill-rule="evenodd" clip-rule="evenodd" d="M48 34.5H42V32.5H48V34.5Z" />
<path fill-rule="evenodd" clip-rule="evenodd" d="M61 34.5H55V32.5H61V34.5Z" />
<path fill-rule="evenodd" clip-rule="evenodd" d="M75 34.5H69V32.5H75V34.5Z" />
<path fill-rule="evenodd" clip-rule="evenodd" d="M89 34.5H83V32.5H89V34.5Z" />
<path fill-rule="evenodd" clip-rule="evenodd" d="M78.6641 13.5C83.6346 13.5 87.6641 17.5294 87.6641 22.5V38.1667C87.6641 41.6645 84.8285 44.5 81.3307 44.5V46.5C85.9331 46.5 89.6641 42.769 89.6641 38.1667V22.5C89.6641 16.4249 84.7392 11.5 78.6641 11.5H75.998V13.5H78.6641Z" />
<path fill-rule="evenodd" clip-rule="evenodd" d="M11 13.5C6.02944 13.5 2 17.5294 2 22.5V38.1667C2 41.6645 4.83553 44.5 8.33333 44.5V46.5C3.73096 46.5 0 42.769 0 38.1667V22.5C0 16.4249 4.92487 11.5 11 11.5H13.666V13.5H11Z" />
<path fill-rule="evenodd" clip-rule="evenodd" d="M82.2227 46.5H7.22266V44.5H82.2227V46.5Z" />
<path fill-rule="evenodd" clip-rule="evenodd" d="M11.0733 30.1211C10.3763 30.1211 9.70786 30.398 9.21503 30.8908C8.72219 31.3836 8.44531 32.0521 8.44531 32.7491V39.4782H13.7012V32.7491C13.7012 32.0521 13.4244 31.3836 12.9315 30.8908C12.4387 30.398 11.7702 30.1211 11.0733 30.1211ZM7.80081 29.4766C8.66872 28.6087 9.84586 28.1211 11.0733 28.1211C12.3007 28.1211 13.4778 28.6087 14.3457 29.4766C15.2136 30.3445 15.7012 31.5216 15.7012 32.7491V40.4782C15.7012 41.0304 15.2535 41.4782 14.7012 41.4782H7.44531C6.89303 41.4782 6.44531 41.0304 6.44531 40.4782V32.7491C6.44531 31.5216 6.93291 30.3445 7.80081 29.4766Z" />
<path fill-rule="evenodd" clip-rule="evenodd" d="M11.0889 22.2012C9.63752 22.2012 8.46094 23.3778 8.46094 24.8291C8.46094 26.2805 9.6375 27.457 11.0889 27.457C12.5403 27.457 13.7168 26.2805 13.7168 24.8291C13.7168 23.3777 12.5402 22.2012 11.0889 22.2012ZM6.46094 24.8291C6.46094 22.2732 8.53295 20.2012 11.0889 20.2012C13.6449 20.2012 15.7168 22.2732 15.7168 24.8291C15.7168 27.3851 13.6448 29.457 11.0889 29.457C8.53297 29.457 6.46094 27.3851 6.46094 24.8291Z" />
<path fill-rule="evenodd" clip-rule="evenodd" d="M24.7373 30.1211C24.0404 30.1211 23.3719 30.398 22.8791 30.8908C22.3863 31.3836 22.1094 32.0521 22.1094 32.7491V39.4782H27.3653V32.7491C27.3653 32.0521 27.0884 31.3836 26.5956 30.8908C26.1027 30.398 25.4343 30.1211 24.7373 30.1211ZM21.4649 29.4766C22.3328 28.6087 23.5099 28.1211 24.7373 28.1211C25.9647 28.1211 27.1419 28.6087 28.0098 29.4766C28.8777 30.3445 29.3653 31.5216 29.3653 32.7491V40.4782C29.3653 41.0304 28.9176 41.4782 28.3653 41.4782H21.1094C20.5571 41.4782 20.1094 41.0304 20.1094 40.4782V32.7491C20.1094 31.5216 20.597 30.3445 21.4649 29.4766Z" />
<path fill-rule="evenodd" clip-rule="evenodd" d="M24.7569 22.2012C23.3055 22.2012 22.1289 23.3778 22.1289 24.8291C22.1289 26.2805 23.3055 27.457 24.7569 27.457C26.2082 27.457 27.3848 26.2805 27.3848 24.8291C27.3848 23.3777 26.2082 22.2012 24.7569 22.2012ZM20.1289 24.8291C20.1289 22.2732 22.2009 20.2012 24.7569 20.2012C27.3128 20.2012 29.3848 22.2732 29.3848 24.8291C29.3848 27.3851 27.3128 29.457 24.7569 29.457C22.2009 29.457 20.1289 27.3851 20.1289 24.8291Z" />
<path fill-rule="evenodd" clip-rule="evenodd" d="M38.4053 30.1211C37.7083 30.1211 37.0399 30.398 36.5471 30.8908C36.0542 31.3836 35.7773 32.0521 35.7773 32.7491V39.4782H41.0333V32.7491C41.0333 32.0521 40.7564 31.3836 40.2635 30.8908C39.7707 30.398 39.1023 30.1211 38.4053 30.1211ZM35.1328 29.4766C36.0007 28.6087 37.1779 28.1211 38.4053 28.1211C39.6327 28.1211 40.8099 28.6087 41.6778 29.4766C42.5457 30.3445 43.0333 31.5216 43.0333 32.7491V40.4782C43.0333 41.0304 42.5855 41.4782 42.0333 41.4782H34.7773C34.2251 41.4782 33.7773 41.0304 33.7773 40.4782V32.7491C33.7773 31.5216 34.2649 30.3445 35.1328 29.4766Z" />
<path fill-rule="evenodd" clip-rule="evenodd" d="M38.4248 22.2012C36.9735 22.2012 35.7969 23.3778 35.7969 24.8291C35.7969 26.2805 36.9734 27.457 38.4248 27.457C39.8762 27.457 41.0527 26.2805 41.0527 24.8291C41.0527 23.3777 39.8762 22.2012 38.4248 22.2012ZM33.7969 24.8291C33.7969 22.2732 35.8689 20.2012 38.4248 20.2012C40.9808 20.2012 43.0527 22.2732 43.0527 24.8291C43.0527 27.3851 40.9808 29.457 38.4248 29.457C35.8689 29.457 33.7969 27.3851 33.7969 24.8291Z" />
<path fill-rule="evenodd" clip-rule="evenodd" d="M65.4053 30.1211C64.7083 30.1211 64.0399 30.398 63.5471 30.8908C63.0542 31.3836 62.7773 32.0521 62.7773 32.7491V39.4782H68.0333V32.7491C68.0333 32.0521 67.7564 31.3836 67.2635 30.8908C66.7707 30.398 66.1023 30.1211 65.4053 30.1211ZM62.1328 29.4766C63.0007 28.6087 64.1779 28.1211 65.4053 28.1211C66.6327 28.1211 67.8099 28.6087 68.6778 29.4766C69.5457 30.3445 70.0333 31.5216 70.0333 32.7491V40.4782C70.0333 41.0304 69.5855 41.4782 69.0333 41.4782H61.7773C61.2251 41.4782 60.7773 41.0304 60.7773 40.4782V32.7491C60.7773 31.5216 61.2649 30.3445 62.1328 29.4766Z" />
<path fill-rule="evenodd" clip-rule="evenodd" d="M65.4248 22.2012C63.9735 22.2012 62.7969 23.3778 62.7969 24.8291C62.7969 26.2805 63.9734 27.457 65.4248 27.457C66.8762 27.457 68.0527 26.2805 68.0527 24.8291C68.0527 23.3777 66.8762 22.2012 65.4248 22.2012ZM60.7969 24.8291C60.7969 22.2732 62.8689 20.2012 65.4248 20.2012C67.9808 20.2012 70.0527 22.2732 70.0527 24.8291C70.0527 27.3851 67.9808 29.457 65.4248 29.457C62.8689 29.457 60.7969 27.3851 60.7969 24.8291Z" />
<path fill-rule="evenodd" clip-rule="evenodd" d="M51.628 30.1211C50.931 30.1211 50.2626 30.398 49.7697 30.8908C49.2769 31.3836 49 32.0521 49 32.7491V39.4782H54.2559V32.7491C54.2559 32.0521 53.979 31.3836 53.4862 30.8908C52.9934 30.398 52.3249 30.1211 51.628 30.1211ZM48.3555 29.4766C49.2234 28.6087 50.4005 28.1211 51.628 28.1211C52.8554 28.1211 54.0325 28.6087 54.9004 29.4766C55.7683 30.3445 56.2559 31.5216 56.2559 32.7491V40.4782C56.2559 41.0304 55.8082 41.4782 55.2559 41.4782H48C47.4477 41.4782 47 41.0304 47 40.4782V32.7491C47 31.5216 47.4876 30.3445 48.3555 29.4766Z" />
<path fill-rule="evenodd" clip-rule="evenodd" d="M51.6475 22.2012C50.1961 22.2012 49.0195 23.3778 49.0195 24.8291C49.0195 26.2805 50.1961 27.457 51.6475 27.457C53.0989 27.457 54.2754 26.2805 54.2754 24.8291C54.2754 23.3777 53.0988 22.2012 51.6475 22.2012ZM47.0195 24.8291C47.0195 22.2732 49.0915 20.2012 51.6475 20.2012C54.2035 20.2012 56.2754 22.2732 56.2754 24.8291C56.2754 27.3851 54.2034 29.457 51.6475 29.457C49.0916 29.457 47.0195 27.3851 47.0195 24.8291Z" />
<path fill-rule="evenodd" clip-rule="evenodd" d="M78.628 30.1211C77.931 30.1211 77.2626 30.398 76.7697 30.8908C76.2769 31.3836 76 32.0521 76 32.7491V39.4782H81.2559V32.7491C81.2559 32.0521 80.979 31.3836 80.4862 30.8908C79.9934 30.398 79.3249 30.1211 78.628 30.1211ZM75.3555 29.4766C76.2234 28.6087 77.4005 28.1211 78.628 28.1211C79.8554 28.1211 81.0325 28.6087 81.9004 29.4766C82.7683 30.3445 83.2559 31.5216 83.2559 32.7491V40.4782C83.2559 41.0304 82.8082 41.4782 82.2559 41.4782H75C74.4477 41.4782 74 41.0304 74 40.4782V32.7491C74 31.5216 74.4876 30.3445 75.3555 29.4766Z" />
<path fill-rule="evenodd" clip-rule="evenodd" d="M78.6475 22.2012C77.1961 22.2012 76.0195 23.3778 76.0195 24.8291C76.0195 26.2805 77.1961 27.457 78.6475 27.457C80.0989 27.457 81.2754 26.2805 81.2754 24.8291C81.2754 23.3777 80.0988 22.2012 78.6475 22.2012ZM74.0195 24.8291C74.0195 22.2732 76.0915 20.2012 78.6475 20.2012C81.2035 20.2012 83.2754 22.2732 83.2754 24.8291C83.2754 27.3851 81.2034 29.457 78.6475 29.457C76.0916 29.457 74.0195 27.3851 74.0195 24.8291Z" />
<path fill-rule="evenodd" clip-rule="evenodd" d="M87.6694 41.7227H1.10938V39.7227H87.6694V41.7227Z" />
<path d="M17.4547 60.5003H18.8587V52.4963H17.4547V55.7723H13.2907V52.4963H11.8867V60.5003H13.2907V57.0083H17.4547V60.5003Z" />
<path d="M20.5586 60.5003H21.9626V52.4963H20.5586V60.5003Z" />
<path d="M23.3041 56.5043C23.3041 59.0123 25.1881 60.6563 27.5041 60.6563C28.8961 60.6563 30.0121 60.0803 30.8041 59.2043V56.2043H27.0121V57.4403H29.4001V58.6883C29.0401 59.0243 28.3201 59.4083 27.5041 59.4083C25.9201 59.4083 24.7441 58.1843 24.7441 56.5043C24.7441 54.8243 25.9201 53.6123 27.5041 53.6123C28.4041 53.6123 29.1601 54.0803 29.5801 54.6803L30.7321 54.0323C30.0841 53.1083 29.0641 52.3643 27.5041 52.3643C25.1881 52.3643 23.3041 53.9963 23.3041 56.5043Z" />
<path d="M37.8336 60.5003H39.2376V52.4963H37.8336V55.7723H33.6696V52.4963H32.2656V60.5003H33.6696V57.0083H37.8336V60.5003Z" />
<path d="M43.5035 59.3723C44.2115 60.1283 45.2795 60.6443 46.7555 60.6443C48.9155 60.6443 49.8515 59.5043 49.8515 58.1723C49.8515 56.4323 48.2795 56.0243 46.9595 55.6883C46.0115 55.4483 45.1955 55.2443 45.1955 54.6203C45.1955 54.0203 45.7235 53.6243 46.5515 53.6243C47.3915 53.6243 48.2435 53.9123 48.8675 54.5363L49.6715 53.4923C48.9275 52.7723 47.9195 52.3763 46.6715 52.3763C44.9195 52.3763 43.7555 53.3963 43.7555 54.7163C43.7555 56.4083 45.2915 56.7923 46.5995 57.1163C47.5715 57.3683 48.4235 57.5843 48.4235 58.3043C48.4235 58.8323 47.9675 59.3963 46.8155 59.3963C45.6995 59.3963 44.8355 58.8803 44.2835 58.2923L43.5035 59.3723Z" />
<path d="M51.1445 60.5003H52.5485V57.5123H54.6605C56.3285 57.5123 57.2765 56.3603 57.2765 55.0043C57.2765 53.6483 56.3405 52.4963 54.6605 52.4963H51.1445V60.5003ZM55.8365 55.0043C55.8365 55.7723 55.2605 56.2763 54.4685 56.2763H52.5485V53.7323H54.4685C55.2605 53.7323 55.8365 54.2363 55.8365 55.0043Z" />
<path d="M58.4453 60.5003H63.9293V59.2643H59.8493V57.0443H63.8453V55.8083H59.8493V53.7323H63.9293V52.4963H58.4453V60.5003Z" />
<path d="M65.3711 60.5003H70.8551V59.2643H66.7751V57.0443H70.7711V55.8083H66.7751V53.7323H70.8551V52.4963H65.3711V60.5003Z" />
<path d="M72.2969 60.5003H75.2729C77.7689 60.5003 79.4609 58.8563 79.4609 56.5043C79.4609 54.1523 77.7689 52.4963 75.2729 52.4963H72.2969V60.5003ZM73.7009 59.2643V53.7323H75.2729C77.0609 53.7323 78.0209 54.9563 78.0209 56.5043C78.0209 58.0163 77.0129 59.2643 75.2729 59.2643H73.7009Z" />
</svg>
