<svg viewBox="0 0 70 47" xmlns="http://www.w3.org/2000/svg">
<path fill-rule="evenodd" clip-rule="evenodd" d="M33.8269 5.13616C34.1806 5.35183 34.2924 5.81335 34.0767 6.16698L30.6718 11.75H38.9972L35.5792 6.16814C35.3629 5.81489 35.4739 5.35318 35.8271 5.13687C36.1804 4.92056 36.6421 5.03156 36.8584 5.38481L40.9755 12.1083C41.1173 12.3398 41.1229 12.6298 40.9902 12.8666C40.8576 13.1033 40.6074 13.25 40.3359 13.25H29.3359C29.0648 13.25 28.8147 13.1036 28.682 12.8671C28.5492 12.6307 28.5544 12.341 28.6956 12.1095L32.7961 5.38597C33.0118 5.03233 33.4733 4.92049 33.8269 5.13616Z" />
<path fill-rule="evenodd" clip-rule="evenodd" d="M38.0586 3.28124C38.0586 5.09341 36.5895 6.56248 34.7773 6.56248C32.9651 6.56248 31.4961 5.09341 31.4961 3.28124C31.4961 1.46907 32.9651 0 34.7773 0C36.5895 0 38.0586 1.46907 38.0586 3.28124ZM36.5586 3.28124C36.5586 4.26499 35.7611 5.06248 34.7773 5.06248C33.7936 5.06248 32.9961 4.26499 32.9961 3.28124C32.9961 2.29749 33.7936 1.5 34.7773 1.5C35.7611 1.5 36.5586 2.29749 36.5586 3.28124Z" />
<path fill-rule="evenodd" clip-rule="evenodd" d="M56.2227 13.5H13.2227V11.5H56.2227V13.5Z" />
<path fill-rule="evenodd" clip-rule="evenodd" d="M9 34.5H1V32.5H9V34.5Z" />
<path fill-rule="evenodd" clip-rule="evenodd" d="M24 34.5H16V32.5H24V34.5Z" />
<path fill-rule="evenodd" clip-rule="evenodd" d="M39 34.5H31V32.5H39V34.5Z" />
<path fill-rule="evenodd" clip-rule="evenodd" d="M53 34.5H46V32.5H53V34.5Z" />
<path fill-rule="evenodd" clip-rule="evenodd" d="M69 34.5H60V32.5H69V34.5Z" />
<path fill-rule="evenodd" clip-rule="evenodd" d="M58.6641 13.5C63.6346 13.5 67.6641 17.5294 67.6641 22.5V38.1667C67.6641 41.6645 64.8285 44.5 61.3307 44.5V46.5C65.9331 46.5 69.6641 42.769 69.6641 38.1667V22.5C69.6641 16.4249 64.7392 11.5 58.6641 11.5H55.998V13.5H58.6641Z" />
<path fill-rule="evenodd" clip-rule="evenodd" d="M11 13.5C6.02944 13.5 2 17.5294 2 22.5V38.1667C2 41.6645 4.83553 44.5 8.33333 44.5V46.5C3.73096 46.5 0 42.769 0 38.1667V22.5C0 16.4249 4.92487 11.5 11 11.5H13.666V13.5H11Z" />
<path fill-rule="evenodd" clip-rule="evenodd" d="M62.2227 46.5H7.22266V44.5H62.2227V46.5Z" />
<path fill-rule="evenodd" clip-rule="evenodd" d="M13.0733 30.1206C12.3763 30.1206 11.7079 30.3975 11.215 30.8903C10.7222 31.3832 10.4453 32.0516 10.4453 32.7486V39.4777H15.7012V32.7486C15.7012 32.0516 15.4244 31.3832 14.9315 30.8903C14.4387 30.3975 13.7702 30.1206 13.0733 30.1206ZM9.80081 29.4761C10.6687 28.6082 11.8459 28.1206 13.0733 28.1206C14.3007 28.1206 15.4778 28.6082 16.3457 29.4761C17.2136 30.344 17.7012 31.5212 17.7012 32.7486V40.4777C17.7012 41.03 17.2535 41.4777 16.7012 41.4777H9.44531C8.89303 41.4777 8.44531 41.03 8.44531 40.4777V32.7486C8.44531 31.5212 8.93291 30.344 9.80081 29.4761Z" />
<path fill-rule="evenodd" clip-rule="evenodd" d="M13.0889 22.2007C11.6375 22.2007 10.4609 23.3773 10.4609 24.8286C10.4609 26.28 11.6375 27.4565 13.0889 27.4565C14.5403 27.4565 15.7168 26.28 15.7168 24.8286C15.7168 23.3772 14.5402 22.2007 13.0889 22.2007ZM8.46094 24.8286C8.46094 22.2727 10.533 20.2007 13.0889 20.2007C15.6449 20.2007 17.7168 22.2727 17.7168 24.8286C17.7168 27.3846 15.6448 29.4565 13.0889 29.4565C10.533 29.4565 8.46094 27.3846 8.46094 24.8286Z" />
<path fill-rule="evenodd" clip-rule="evenodd" d="M27.7373 30.1206C27.0404 30.1206 26.3719 30.3975 25.8791 30.8903C25.3863 31.3832 25.1094 32.0516 25.1094 32.7486V39.4777H30.3653V32.7486C30.3653 32.0516 30.0884 31.3832 29.5956 30.8903C29.1027 30.3975 28.4343 30.1206 27.7373 30.1206ZM24.4649 29.4761C25.3328 28.6082 26.5099 28.1206 27.7373 28.1206C28.9647 28.1206 30.1419 28.6082 31.0098 29.4761C31.8777 30.344 32.3653 31.5212 32.3653 32.7486V40.4777C32.3653 41.03 31.9176 41.4777 31.3653 41.4777H24.1094C23.5571 41.4777 23.1094 41.03 23.1094 40.4777V32.7486C23.1094 31.5212 23.597 30.344 24.4649 29.4761Z" />
<path fill-rule="evenodd" clip-rule="evenodd" d="M27.7569 22.2007C26.3055 22.2007 25.1289 23.3773 25.1289 24.8286C25.1289 26.28 26.3055 27.4565 27.7569 27.4565C29.2082 27.4565 30.3848 26.28 30.3848 24.8286C30.3848 23.3772 29.2082 22.2007 27.7569 22.2007ZM23.1289 24.8286C23.1289 22.2727 25.2009 20.2007 27.7569 20.2007C30.3128 20.2007 32.3848 22.2727 32.3848 24.8286C32.3848 27.3846 30.3128 29.4565 27.7569 29.4565C25.2009 29.4565 23.1289 27.3846 23.1289 24.8286Z" />
<path fill-rule="evenodd" clip-rule="evenodd" d="M42.4053 30.1206C41.7083 30.1206 41.0399 30.3975 40.5471 30.8903C40.0542 31.3832 39.7773 32.0516 39.7773 32.7486V39.4777H45.0333V32.7486C45.0333 32.0516 44.7564 31.3832 44.2635 30.8903C43.7707 30.3975 43.1023 30.1206 42.4053 30.1206ZM39.1328 29.4761C40.0007 28.6082 41.1779 28.1206 42.4053 28.1206C43.6327 28.1206 44.8099 28.6082 45.6778 29.4761C46.5457 30.344 47.0333 31.5212 47.0333 32.7486V40.4777C47.0333 41.03 46.5855 41.4777 46.0333 41.4777H38.7773C38.2251 41.4777 37.7773 41.03 37.7773 40.4777V32.7486C37.7773 31.5212 38.2649 30.344 39.1328 29.4761Z" />
<path fill-rule="evenodd" clip-rule="evenodd" d="M42.4248 22.2007C40.9735 22.2007 39.7969 23.3773 39.7969 24.8286C39.7969 26.28 40.9734 27.4565 42.4248 27.4565C43.8762 27.4565 45.0527 26.28 45.0527 24.8286C45.0527 23.3772 43.8762 22.2007 42.4248 22.2007ZM37.7969 24.8286C37.7969 22.2727 39.8689 20.2007 42.4248 20.2007C44.9808 20.2007 47.0527 22.2727 47.0527 24.8286C47.0527 27.3846 44.9808 29.4565 42.4248 29.4565C39.8689 29.4565 37.7969 27.3846 37.7969 24.8286Z" />
<path fill-rule="evenodd" clip-rule="evenodd" d="M56.628 30.1206C55.931 30.1206 55.2626 30.3975 54.7697 30.8903C54.2769 31.3832 54 32.0516 54 32.7486V39.4777H59.2559V32.7486C59.2559 32.0516 58.979 31.3832 58.4862 30.8903C57.9934 30.3975 57.3249 30.1206 56.628 30.1206ZM53.3555 29.4761C54.2234 28.6082 55.4005 28.1206 56.628 28.1206C57.8554 28.1206 59.0325 28.6082 59.9004 29.4761C60.7683 30.344 61.2559 31.5212 61.2559 32.7486V40.4777C61.2559 41.03 60.8082 41.4777 60.2559 41.4777H53C52.4477 41.4777 52 41.03 52 40.4777V32.7486C52 31.5212 52.4876 30.344 53.3555 29.4761Z" />
<path fill-rule="evenodd" clip-rule="evenodd" d="M56.6475 22.2007C55.1961 22.2007 54.0195 23.3773 54.0195 24.8286C54.0195 26.28 55.1961 27.4565 56.6475 27.4565C58.0989 27.4565 59.2754 26.28 59.2754 24.8286C59.2754 23.3772 58.0988 22.2007 56.6475 22.2007ZM52.0195 24.8286C52.0195 22.2727 54.0915 20.2007 56.6475 20.2007C59.2035 20.2007 61.2754 22.2727 61.2754 24.8286C61.2754 27.3846 59.2034 29.4565 56.6475 29.4565C54.0916 29.4565 52.0195 27.3846 52.0195 24.8286Z" />
<path fill-rule="evenodd" clip-rule="evenodd" d="M67.6694 41.7222H1.10938V39.7222H67.6694V41.7222Z" />
</svg>
