<svg xmlns="http://www.w3.org/2000/svg" viewBox="0 0 23.54 25.03"><path d="M23.1 17.43a.37.37 0 0 1 .4.34v.06a4 4 0 0 1 0 1.2 2.23 2.23 0 0 1-1.9 1.8L.5 25a.41.41 0 0 1-.2-.8l17.3-3.4a1.38 1.38 0 0 0 1.2-1.2 2.27 2.27 0 0 0 0-.9.4.4 0 0 1 .8 0 4 4 0 0 1 0 1.2.89.89 0 0 1-.3.7l2.1-.4a1.38 1.38 0 0 0 1.2-1.2 2.27 2.27 0 0 0 0-.9c.2-.37.3-.57.5-.67Zm-14.7-13c2 .4 8.2 2.7 8.7 2.9a.83.83 0 0 1 .5 1 1 1 0 0 1-.4.5h-.1v11.5h-.8V8.83l-6.6-1.2v3.8l4.3 2.9a1 1 0 0 1 .4.5v.1l.9 4.8a1.19 1.19 0 0 1-2.3.6v-.1L12.2 16l-4.6-2.4a2 2 0 0 1-1-1.5V12l.2-6.1c.1-.9.8-1.67 1.6-1.47ZM8 14.63a1.14 1.14 0 0 1 .9 1.3V16l-1.4 5.5a1.18 1.18 0 0 1-1.3.8H6a1.14 1.14 0 0 1-.6-1.2V21l1.3-5.5a1 1 0 0 1 1.3-.9ZM8.5 0a1.94 1.94 0 1 1 .8 3.8 1.83 1.83 0 0 1-2.25-1.22 2.21 2.21 0 0 1 0-.25A2 2 0 0 1 8.5 0Z" style="fill-rule:evenodd"/></svg>
