<svg viewBox="0 0 55 47" xmlns="http://www.w3.org/2000/svg">
<path fill-rule="evenodd" clip-rule="evenodd" d="M9.76953 38.5H0.769531L0.769531 36.5H9.76953V38.5Z" />
<path fill-rule="evenodd" clip-rule="evenodd" d="M23.7695 38.5H17.7695V36.5H23.7695V38.5Z" />
<path fill-rule="evenodd" clip-rule="evenodd" d="M36.7695 38.5H30.7695V36.5H36.7695V38.5Z" />
<path fill-rule="evenodd" clip-rule="evenodd" d="M52.7695 38.5H44.7695V36.5H52.7695V38.5Z" />
<path fill-rule="evenodd" clip-rule="evenodd" d="M2.97474 17.3941C3.51808 13.9982 6.44775 11.5 9.88682 11.5H44.6542C48.0933 11.5 51.0229 13.9982 51.5663 17.3941L54.4531 35.4367C54.6844 36.8821 54.4567 38.3638 53.802 39.6731L51.2177 44.8416C50.7095 45.858 49.6708 46.5 48.5344 46.5H6.00658C4.87026 46.5 3.83147 45.858 3.32329 44.8416L0.739016 39.6731C0.0843539 38.3638 -0.143355 36.8821 0.0879225 35.4367L2.97474 17.3941ZM9.88682 13.5C7.43034 13.5 5.33772 15.2844 4.94962 17.71L2.0628 35.7526C1.89761 36.7851 2.06025 37.8434 2.52787 38.7787L5.11215 43.9472C5.28154 44.286 5.6278 44.5 6.00658 44.5H48.5344C48.9132 44.5 49.2595 44.286 49.4289 43.9472L52.0131 38.7787C52.4808 37.8434 52.6434 36.7851 52.4782 35.7526L49.5914 17.71C49.2033 15.2844 47.1107 13.5 44.6542 13.5H9.88682Z" />
<path fill-rule="evenodd" clip-rule="evenodd" d="M13.3975 34.4199C12.7005 34.4199 12.0321 34.6968 11.5392 35.1896C11.0464 35.6825 10.7695 36.3509 10.7695 37.0479V44.5H16.0254V37.0479C16.0254 36.3509 15.7486 35.6825 15.2557 35.1896C14.7629 34.6968 14.0945 34.4199 13.3975 34.4199ZM10.125 33.7754C10.9929 32.9075 12.1701 32.4199 13.3975 32.4199C14.6249 32.4199 15.802 32.9075 16.6699 33.7754C17.5379 34.6433 18.0254 35.8205 18.0254 37.0479V45.5C18.0254 46.0523 17.5777 46.5 17.0254 46.5H9.76953C9.21725 46.5 8.76953 46.0523 8.76953 45.5V37.0479C8.76953 35.8205 9.25713 34.6433 10.125 33.7754Z" />
<path fill-rule="evenodd" clip-rule="evenodd" d="M13.417 26.5C11.9656 26.5 10.7891 27.6766 10.7891 29.128C10.7891 30.5793 11.9656 31.7559 13.417 31.7559C14.8684 31.7559 16.0449 30.5793 16.0449 29.128C16.0449 27.6766 14.8684 26.5 13.417 26.5ZM8.78906 29.128C8.78906 26.572 10.8611 24.5 13.417 24.5C15.973 24.5 18.0449 26.572 18.0449 29.128C18.0449 31.6839 15.973 33.7559 13.417 33.7559C10.8611 33.7559 8.78906 31.6839 8.78906 29.128Z" />
<path fill-rule="evenodd" clip-rule="evenodd" d="M27.2803 34.4199C26.5833 34.4199 25.9149 34.6968 25.4221 35.1896C24.9292 35.6825 24.6523 36.3509 24.6523 37.0479V44.5H29.9083V37.0479C29.9083 36.3509 29.6314 35.6825 29.1385 35.1896C28.6457 34.6968 27.9773 34.4199 27.2803 34.4199ZM24.0078 33.7754C24.8757 32.9075 26.0529 32.4199 27.2803 32.4199C28.5077 32.4199 29.6849 32.9075 30.5528 33.7754C31.4207 34.6433 31.9083 35.8205 31.9083 37.0479V45.5C31.9083 46.0523 31.4605 46.5 30.9083 46.5H23.6523C23.1001 46.5 22.6523 46.0523 22.6523 45.5V37.0479C22.6523 35.8205 23.1399 34.6433 24.0078 33.7754Z" />
<path fill-rule="evenodd" clip-rule="evenodd" d="M27.2998 26.5C25.8485 26.5 24.6719 27.6766 24.6719 29.128C24.6719 30.5793 25.8484 31.7559 27.2998 31.7559C28.7512 31.7559 29.9277 30.5793 29.9277 29.128C29.9277 27.6766 28.7512 26.5 27.2998 26.5ZM22.6719 29.128C22.6719 26.572 24.7439 24.5 27.2998 24.5C29.8558 24.5 31.9277 26.572 31.9277 29.128C31.9277 31.6839 29.8558 33.7559 27.2998 33.7559C24.7439 33.7559 22.6719 31.6839 22.6719 29.128Z" />
<path fill-rule="evenodd" clip-rule="evenodd" d="M41.1201 34.4199C40.4232 34.4199 39.7547 34.6968 39.2619 35.1896C38.7691 35.6825 38.4922 36.3509 38.4922 37.0479V44.5H43.7481V37.0479C43.7481 36.3509 43.4712 35.6825 42.9784 35.1896C42.4856 34.6968 41.8171 34.4199 41.1201 34.4199ZM37.8477 33.7754C38.7156 32.9075 39.8927 32.4199 41.1201 32.4199C42.3476 32.4199 43.5247 32.9075 44.3926 33.7754C45.2605 34.6433 45.7481 35.8205 45.7481 37.0479V45.5C45.7481 46.0523 45.3004 46.5 44.7481 46.5H37.4922C36.9399 46.5 36.4922 46.0523 36.4922 45.5V37.0479C36.4922 35.8205 36.9798 34.6433 37.8477 33.7754Z" />
<path fill-rule="evenodd" clip-rule="evenodd" d="M41.1397 26.5C39.6883 26.5 38.5117 27.6766 38.5117 29.128C38.5117 30.5793 39.6883 31.7559 41.1397 31.7559C42.591 31.7559 43.7676 30.5793 43.7676 29.128C43.7676 27.6766 42.591 26.5 41.1397 26.5ZM36.5117 29.128C36.5117 26.572 38.5837 24.5 41.1397 24.5C43.6956 24.5 45.7676 26.572 45.7676 29.128C45.7676 31.6839 43.6956 33.7559 41.1397 33.7559C38.5838 33.7559 36.5117 31.6839 36.5117 29.128Z" />
<path fill-rule="evenodd" clip-rule="evenodd" d="M28.2192 5.06899C28.5724 4.85268 29.0342 4.96369 29.2505 5.31694L33.4091 12.1083C33.5509 12.3397 33.5565 12.6297 33.4238 12.8665C33.2912 13.1033 33.0409 13.2499 32.7695 13.2499H21.7695C21.4984 13.2499 21.2483 13.1035 21.1156 12.8671C20.9828 12.6306 20.988 12.3409 21.1292 12.1094L25.2183 5.40459C25.434 5.05095 25.8955 4.93911 26.2491 5.15478C26.6028 5.37045 26.7146 5.83197 26.4989 6.18561L23.1054 11.7499H31.4308L27.9713 6.10027C27.7549 5.74702 27.866 5.28531 28.2192 5.06899Z" />
<path fill-rule="evenodd" clip-rule="evenodd" d="M30.4922 3.28124C30.4922 5.09341 29.0231 6.56248 27.2109 6.56248C25.3987 6.56248 23.9297 5.09341 23.9297 3.28124C23.9297 1.46907 25.3987 0 27.2109 0C29.0231 0 30.4922 1.46907 30.4922 3.28124ZM28.9922 3.28124C28.9922 4.26499 28.1947 5.06248 27.2109 5.06248C26.2272 5.06248 25.4297 4.26499 25.4297 3.28124C25.4297 2.29749 26.2272 1.5 27.2109 1.5C28.1947 1.5 28.9922 2.29749 28.9922 3.28124Z" />
</svg>
